<!DOCTYPE svg PUBLIC "-//W3C//DTD SVG 20010904//EN" "http://www.w3.org/TR/2001/REC-SVG-20010904/DTD/svg10.dtd">
<svg version="1.0" xmlns="http://www.w3.org/2000/svg" width="120px" height="153px" viewBox="0 0 3670 4690" preserveAspectRatio="xMidYMid meet">
<g id="layer101" fill="#000000" stroke="none">
 <path d="M1850 4575 c0 -96 3 -115 15 -115 12 0 15 19 15 115 0 96 -3 115 -15 115 -12 0 -15 -19 -15 -115z"/>
 <path d="M1826 4404 c-18 -47 1 -84 44 -84 33 0 50 17 50 50 0 14 -5 31 -12 38 -18 18 -75 15 -82 -4z"/>
 <path d="M1856 4293 c-3 -3 -6 -34 -6 -68 l0 -61 -132 -12 c-163 -15 -289 -41 -433 -88 -638 -211 -1107 -737 -1247 -1401 -20 -95 -23 -136 -23 -343 0 -258 13 -350 76 -543 174 -532 589 -951 1119 -1128 177 -59 399 -99 550 -99 l50 0 0 -65 c0 -51 3 -65 15 -65 12 0 15 14 15 63 l0 63 128 12 c247 24 453 83 681 198 196 99 308 181 476 349 170 169 250 279 350 480 145 293 205 566 192 875 -20 459 -203 870 -528 1186 -320 310 -706 481 -1156 510 l-103 7 0 63 c0 58 -8 82 -24 67z m-6 -236 l0 -74 -100 -7 c-600 -39 -1157 -414 -1416 -952 -194 -404 -210 -877 -43 -1293 114 -284 348 -562 619 -736 226 -145 517 -239 782 -252 l118 -6 0 -80 0 -80 -117 6 c-343 18 -694 146 -973 356 -116 87 -281 256 -362 371 -373 527 -427 1200 -143 1785 246 508 717 876 1270 994 123 27 209 38 298 40 l67 1 0 -73z m267 58 c790 -112 1398 -711 1508 -1488 65 -455 -63 -936 -350 -1315 -251 -333 -617 -574 -1023 -677 -114 -29 -283 -55 -359 -55 l-53 0 0 78 0 79 98 6 c359 22 724 177 1017 434 86 75 202 209 191 220 -3 4 -57 -45 -119 -109 -204 -210 -429 -351 -702 -441 -99 -33 -247 -64 -340 -72 -38 -3 -87 -8 -108 -11 l-39 -5 7 313 c5 282 17 472 31 521 4 13 16 17 48 17 157 0 368 110 484 252 91 110 162 288 162 404 l0 43 55 6 c37 5 55 12 55 21 0 8 -8 14 -17 14 -10 0 -34 5 -53 10 -35 10 -36 11 -47 84 -42 264 -231 486 -483 570 -41 13 -100 27 -132 31 -45 6 -58 11 -63 29 -11 31 -18 568 -10 735 l7 144 112 -6 c358 -19 731 -180 991 -429 64 -61 96 -85 101 -76 12 19 -165 180 -286 260 -245 163 -528 259 -810 275 l-110 6 0 74 0 73 68 0 c37 0 113 -7 169 -15z m-272 -554 c-4 -213 -10 -415 -14 -447 l-6 -58 -88 -17 c-192 -38 -347 -142 -457 -306 -57 -86 -87 -159 -108 -271 -14 -69 -20 -83 -37 -86 -95 -18 -129 -37 -75 -44 14 -2 41 -8 61 -13 35 -9 36 -11 42 -67 20 -183 117 -364 258 -482 79 -66 205 -127 305 -147 l82 -17 6 -51 c9 -76 7 -768 -3 -783 -11 -17 -212 -1 -349 29 -636 138 -1112 616 -1233 1241 -133 685 233 1404 878 1727 219 109 474 178 667 180 l78 1 -7 -389z m-30 -563 c-21 -94 -36 -165 -36 -178 0 -8 -10 -66 -21 -127 -15 -83 -24 -111 -33 -105 -7 4 -83 61 -169 127 l-157 120 38 33 c54 46 206 120 283 136 94 21 101 20 95 -6z m188 6 c93 -21 198 -70 265 -123 l53 -42 -183 -133 -183 -133 -17 121 c-50 359 -47 326 -26 326 11 0 51 -7 91 -16z m438 -314 c44 -75 83 -182 94 -258 8 -61 12 -60 -110 -38 -122 22 -134 24 -225 37 -47 6 -93 15 -102 18 -14 5 8 40 115 183 l131 178 29 -28 c16 -15 46 -56 68 -92z m-951 -56 c61 -91 110 -168 107 -170 -3 -3 -44 -11 -92 -19 -48 -8 -136 -24 -196 -36 -60 -12 -112 -20 -115 -17 -8 8 21 136 46 201 22 58 115 207 129 207 5 0 59 -75 121 -166z m228 -79 c19 -17 4 -73 -22 -80 -11 -4 -28 -9 -37 -11 -12 -3 -44 37 -118 145 -55 82 -101 152 -101 155 0 5 244 -179 278 -209z m446 60 l-117 -155 -36 6 c-44 8 -41 5 -47 45 -5 34 -3 35 152 147 87 61 159 112 161 112 2 0 -49 -70 -113 -155z m-739 -356 c105 -17 192 -33 194 -34 4 -5 -258 -329 -270 -333 -25 -10 -122 188 -145 297 -20 97 -19 115 9 107 12 -3 108 -20 212 -37z m1115 4 c-1 -100 -73 -286 -143 -367 l-33 -38 -94 118 c-51 66 -116 147 -143 181 -32 42 -44 64 -35 67 31 9 133 27 278 50 85 13 158 24 163 25 4 0 7 -16 7 -36z m-818 -66 c4 -6 8 -30 8 -52 0 -39 -2 -41 -83 -91 -45 -28 -120 -74 -166 -103 -75 -47 -81 -50 -60 -23 13 16 71 89 129 161 99 125 107 132 135 126 16 -3 33 -11 37 -18z m374 -45 c29 -37 89 -114 135 -171 l82 -105 -54 40 c-30 21 -109 79 -175 127 l-121 88 6 37 c6 36 12 40 71 50 3 1 28 -29 56 -66z m50 -189 c96 -69 177 -130 180 -134 8 -14 -82 -82 -161 -120 -90 -43 -179 -69 -241 -69 l-41 0 23 148 c42 270 48 302 57 302 5 0 87 -57 183 -127z m-388 50 c19 -117 44 -364 38 -370 -11 -12 -143 28 -221 66 -71 36 -186 118 -193 139 -2 6 343 229 359 231 3 1 11 -29 17 -66z"/>
 <path d="M1786 378 c-21 -30 -20 -61 2 -81 38 -34 92 -8 92 45 0 52 -65 77 -94 36z"/>
 <path d="M1818 233 c-2 -10 -6 -64 -7 -120 -2 -88 0 -103 13 -103 14 0 16 17 16 120 0 66 -4 120 -9 120 -5 0 -11 -8 -13 -17z"/>
 </g>

</svg>