<!DOCTYPE svg PUBLIC "-//W3C//DTD SVG 20010904//EN" "http://www.w3.org/TR/2001/REC-SVG-20010904/DTD/svg10.dtd">
<svg version="1.0" xmlns="http://www.w3.org/2000/svg" width="373px" height="474px" viewBox="0 0 3730 4740" preserveAspectRatio="xMidYMid meet">
<g id="layer101" fill="#393939" stroke="none">
 <path d="M1870 4576 c0 -106 3 -135 14 -139 8 -3 17 -3 20 0 3 4 6 66 6 140 0 126 -1 133 -20 133 -19 0 -20 -7 -20 -134z"/>
 <path d="M1874 4385 c-7 -18 14 -47 27 -39 5 3 9 13 9 24 0 23 -29 35 -36 15z"/>
 <path d="M1886 4313 c-3 -3 -6 -34 -6 -68 l0 -61 -132 -12 c-163 -15 -289 -41 -433 -88 -638 -211 -1107 -737 -1247 -1401 -20 -95 -23 -136 -23 -343 0 -258 13 -350 76 -543 174 -532 589 -951 1119 -1128 177 -59 399 -99 549 -99 l50 0 3 -72 c2 -40 8 -73 13 -73 6 0 11 32 13 71 l3 70 127 12 c247 24 453 83 681 198 196 99 308 181 476 349 170 169 250 279 350 480 145 293 205 566 192 875 -20 459 -203 870 -528 1186 -320 310 -706 481 -1156 510 l-103 7 0 63 c0 58 -8 82 -24 67z m-6 -236 l0 -74 -100 -7 c-600 -39 -1157 -414 -1416 -952 -194 -404 -210 -877 -43 -1293 114 -284 348 -562 619 -736 226 -145 517 -239 782 -252 l118 -6 0 -80 0 -80 -117 6 c-343 18 -694 146 -973 356 -116 87 -281 256 -362 371 -373 527 -427 1200 -143 1785 246 508 717 876 1270 994 123 27 209 38 298 40 l67 1 0 -73z m267 58 c790 -112 1398 -711 1508 -1488 65 -455 -63 -936 -350 -1315 -251 -333 -617 -574 -1023 -677 -114 -29 -283 -55 -359 -55 l-53 0 0 78 0 79 98 6 c359 22 724 177 1017 434 86 75 202 209 191 220 -3 4 -57 -45 -119 -109 -296 -304 -666 -481 -1079 -517 -56 -5 -104 -8 -104 -7 -1 0 1 268 4 594 l5 592 42 0 c55 0 127 22 175 54 l38 25 89 -49 c220 -124 348 -147 314 -57 -14 37 -105 139 -188 212 l-77 68 -1 121 c0 109 -3 127 -26 176 -32 68 -115 161 -173 193 -52 29 -131 57 -161 57 l-21 0 3 458 c2 251 6 522 9 601 l6 144 112 -6 c358 -19 731 -180 991 -429 64 -61 96 -85 101 -76 12 19 -165 180 -286 260 -245 163 -528 259 -810 275 l-110 6 0 74 0 73 68 0 c37 0 113 -7 169 -15z m-270 -457 c-4 -161 -7 -431 -7 -599 l0 -306 -62 -5 c-43 -4 -84 -16 -129 -38 l-66 -33 -72 43 c-171 99 -321 147 -337 106 -13 -34 23 -85 151 -211 123 -121 132 -132 123 -155 -5 -14 -8 -63 -6 -110 5 -105 42 -193 114 -270 53 -57 160 -115 231 -126 l46 -7 -6 -180 c-4 -99 -7 -361 -7 -581 0 -221 -4 -407 -9 -414 -11 -17 -212 -1 -349 29 -636 138 -1112 616 -1233 1241 -133 685 233 1404 878 1727 219 109 474 178 667 180 l79 1 -6 -292z m-477 -899 c58 -28 124 -62 148 -76 39 -22 42 -26 29 -41 -8 -10 -31 -41 -50 -70 l-34 -52 -111 105 c-105 100 -152 157 -152 184 0 21 57 4 170 -50z m469 -71 c-1 -24 -4 -71 -8 -106 l-6 -63 -57 39 c-31 22 -77 52 -102 67 -25 15 -46 30 -46 34 0 19 138 67 198 70 20 1 22 -3 21 -41z m163 -4 c111 -56 196 -167 219 -286 10 -54 3 -158 -11 -158 -4 0 -53 35 -107 78 -55 42 -132 100 -171 127 l-71 50 -1 114 0 114 45 -6 c25 -4 68 -18 97 -33z m-291 -121 l119 -78 0 -117 c0 -65 -2 -118 -6 -118 -7 0 -142 99 -246 182 l-88 70 17 31 c17 35 72 107 80 107 3 0 59 -35 124 -77z m-32 -242 l151 -114 0 -115 0 -115 -39 6 c-130 17 -257 128 -306 267 -17 47 -23 161 -10 199 6 21 7 21 29 4 13 -10 91 -69 175 -132z m364 6 c86 -65 157 -122 157 -125 0 -14 -58 -107 -76 -124 -18 -16 -25 -13 -139 62 -116 77 -120 81 -128 122 -11 59 1 200 17 191 6 -4 82 -60 169 -126z m24 -273 c16 -10 12 -14 -32 -36 -43 -22 -134 -48 -165 -48 -6 0 -10 47 -10 110 l0 110 94 -63 c52 -34 102 -67 113 -73z m280 19 c101 -98 153 -166 139 -180 -12 -12 -105 22 -215 78 -64 33 -120 64 -125 69 -5 5 4 25 22 47 17 22 36 51 43 66 7 15 15 27 19 27 4 0 56 -48 117 -107z"/>
 <path d="M1840 350 c0 -15 5 -20 18 -18 9 2 17 10 17 18 0 8 -8 16 -17 18 -13 2 -18 -3 -18 -18z"/>
 <path d="M1840 150 c0 -100 3 -120 15 -120 13 0 15 20 15 120 0 100 -2 120 -15 120 -12 0 -15 -20 -15 -120z"/>
 </g>

</svg>